<svg width="20" height="20" viewBox="0 0 20 20" fill="none" xmlns="http://www.w3.org/2000/svg">
<path d="M0 10C0 4.47715 4.47715 0 10 0C15.5228 0 20 4.47715 20 10V20H10C4.47715 20 0 15.5228 0 10Z" fill="#E6E6E6"/>
<mask id="mask0" mask-type="alpha" maskUnits="userSpaceOnUse" x="0" y="0" width="20" height="20">
<rect width="20" height="20" rx="10" fill="#C4C4C4"/>
</mask>
<g mask="url(#mask0)">
<g clip-path="url(#clip0)">
<path d="M17.5 16.7145L14.0211 13.2356C14.9248 12.1304 15.3691 10.7201 15.2621 9.29646C15.1552 7.87284 14.5051 6.54478 13.4464 5.587C12.3878 4.62921 11.0014 4.11498 9.57425 4.15067C8.14706 4.18635 6.78817 4.76922 5.77868 5.77872C4.76918 6.78821 4.18631 8.14709 4.15063 9.57429C4.11495 11.0015 4.62918 12.3878 5.58696 13.4465C6.54474 14.5052 7.8728 15.1552 9.29643 15.2622C10.7201 15.3691 12.1303 14.9248 13.2356 14.0212L16.7144 17.5L17.5 16.7145ZM9.72223 14.1667C8.8432 14.1667 7.98391 13.906 7.25303 13.4177C6.52214 12.9293 5.95249 12.2352 5.6161 11.4231C5.27971 10.611 5.19169 9.71733 5.36318 8.8552C5.53467 7.99306 5.95796 7.20113 6.57953 6.57957C7.2011 5.958 7.99302 5.53471 8.85516 5.36322C9.7173 5.19173 10.6109 5.27974 11.423 5.61613C12.2352 5.95252 12.9293 6.52218 13.4176 7.25306C13.906 7.98395 14.1667 8.84324 14.1667 9.72226C14.1653 10.9006 13.6967 12.0303 12.8635 12.8635C12.0303 13.6967 10.9006 14.1654 9.72223 14.1667Z" fill="white"/>
</g>
</g>
<defs>
<clipPath id="clip0">
<rect width="13.3333" height="13.3333" fill="white" transform="translate(4.16667 4.16675)"/>
</clipPath>
</defs>
</svg>
